<mxfile host="app.diagrams.net" modified="2022-08-14T21:57:32.860Z" agent="5.0 (Macintosh; Intel Mac OS X 10_15_7) AppleWebKit/537.36 (KHTML, like Gecko) Chrome/104.0.0.0 Safari/537.36" etag="ba2A8ipvehX8Lav5VfQq" version="20.2.3" type="github">
  <diagram id="C5RBs43oDa-KdzZeNtuy" name="Page-1">
    <mxGraphModel dx="1407" dy="1094" grid="1" gridSize="10" guides="1" tooltips="1" connect="1" arrows="1" fold="1" page="1" pageScale="1" pageWidth="900" pageHeight="1600" math="0" shadow="0">
      <root>
        <mxCell id="WIyWlLk6GJQsqaUBKTNV-0" />
        <mxCell id="WIyWlLk6GJQsqaUBKTNV-1" parent="WIyWlLk6GJQsqaUBKTNV-0" />
        <mxCell id="DPXlRrsLsoSHNQQJ87b8-13" value="" style="rounded=1;whiteSpace=wrap;html=1;labelBackgroundColor=none;fontSize=11;fontColor=#990000;fillColor=#E6E6E6;dashed=1;strokeWidth=2;strokeColor=#B3B3B3;fillStyle=solid;perimeterSpacing=1;" vertex="1" parent="WIyWlLk6GJQsqaUBKTNV-1">
          <mxGeometry x="39" y="380" width="821" height="1180" as="geometry" />
        </mxCell>
        <mxCell id="WIyWlLk6GJQsqaUBKTNV-2" value="" style="rounded=0;html=1;jettySize=auto;orthogonalLoop=1;fontSize=11;endArrow=block;endFill=0;endSize=8;strokeWidth=1;shadow=0;labelBackgroundColor=none;edgeStyle=orthogonalEdgeStyle;entryX=0.5;entryY=0;entryDx=0;entryDy=0;" parent="WIyWlLk6GJQsqaUBKTNV-1" target="DPXlRrsLsoSHNQQJ87b8-10" edge="1">
          <mxGeometry relative="1" as="geometry">
            <mxPoint x="225" y="80" as="sourcePoint" />
            <mxPoint x="225" y="130" as="targetPoint" />
          </mxGeometry>
        </mxCell>
        <mxCell id="WIyWlLk6GJQsqaUBKTNV-3" value="Request" style="rounded=1;whiteSpace=wrap;html=1;fontSize=12;glass=0;strokeWidth=1;shadow=0;" parent="WIyWlLk6GJQsqaUBKTNV-1" vertex="1">
          <mxGeometry x="155" y="40" width="140" height="40" as="geometry" />
        </mxCell>
        <mxCell id="WIyWlLk6GJQsqaUBKTNV-8" value="No" style="rounded=0;html=1;jettySize=auto;orthogonalLoop=1;fontSize=11;endArrow=block;endFill=0;endSize=8;strokeWidth=1;shadow=0;labelBackgroundColor=none;edgeStyle=orthogonalEdgeStyle;" parent="WIyWlLk6GJQsqaUBKTNV-1" source="WIyWlLk6GJQsqaUBKTNV-10" target="WIyWlLk6GJQsqaUBKTNV-11" edge="1">
          <mxGeometry x="0.3333" y="20" relative="1" as="geometry">
            <mxPoint as="offset" />
          </mxGeometry>
        </mxCell>
        <mxCell id="WIyWlLk6GJQsqaUBKTNV-9" value="Yes" style="edgeStyle=orthogonalEdgeStyle;rounded=0;html=1;jettySize=auto;orthogonalLoop=1;fontSize=11;endArrow=block;endFill=0;endSize=8;strokeWidth=1;shadow=0;labelBackgroundColor=none;" parent="WIyWlLk6GJQsqaUBKTNV-1" source="WIyWlLk6GJQsqaUBKTNV-10" target="WIyWlLk6GJQsqaUBKTNV-12" edge="1">
          <mxGeometry y="10" relative="1" as="geometry">
            <mxPoint as="offset" />
          </mxGeometry>
        </mxCell>
        <mxCell id="WIyWlLk6GJQsqaUBKTNV-10" value="&lt;b&gt;CHECK AB TEST&lt;/b&gt;&lt;br&gt;IsAuthFlowEnabled?&lt;br&gt;Adobe or Killswitch Config?&lt;br&gt;Docker ENV variable?" style="rhombus;whiteSpace=wrap;html=1;shadow=0;fontFamily=Helvetica;fontSize=11;align=center;strokeWidth=1;spacing=6;spacingTop=-4;verticalAlign=middle;" parent="WIyWlLk6GJQsqaUBKTNV-1" vertex="1">
          <mxGeometry x="354" y="460" width="180" height="140" as="geometry" />
        </mxCell>
        <mxCell id="WIyWlLk6GJQsqaUBKTNV-11" value="Apply Legacy Auth Flow" style="rounded=1;whiteSpace=wrap;html=1;fontSize=12;glass=0;strokeWidth=1;shadow=0;" parent="WIyWlLk6GJQsqaUBKTNV-1" vertex="1">
          <mxGeometry x="650.25" y="510" width="120" height="40" as="geometry" />
        </mxCell>
        <mxCell id="WIyWlLk6GJQsqaUBKTNV-12" value="Apply Auth Flow" style="rounded=0;whiteSpace=wrap;html=1;fontSize=12;glass=0;strokeWidth=1;shadow=0;" parent="WIyWlLk6GJQsqaUBKTNV-1" vertex="1">
          <mxGeometry x="384" y="660" width="120" height="40" as="geometry" />
        </mxCell>
        <mxCell id="DPXlRrsLsoSHNQQJ87b8-1" value="Add middleware for routes&lt;br&gt;&lt;font color=&quot;#990000&quot;&gt;/&lt;span style=&quot;font-family: menlo, monospace; font-size: 11px; text-align: left;&quot;&gt;api/auth/v1/&lt;/span&gt;&lt;/font&gt;" style="rounded=0;whiteSpace=wrap;html=1;" vertex="1" parent="WIyWlLk6GJQsqaUBKTNV-1">
          <mxGeometry x="135" y="240" width="180" height="60" as="geometry" />
        </mxCell>
        <mxCell id="DPXlRrsLsoSHNQQJ87b8-5" value="" style="endArrow=classic;html=1;rounded=0;fontSize=11;fontColor=#66CC00;exitX=0.5;exitY=1;exitDx=0;exitDy=0;entryX=0.5;entryY=0;entryDx=0;entryDy=0;" edge="1" parent="WIyWlLk6GJQsqaUBKTNV-1" source="WIyWlLk6GJQsqaUBKTNV-12" target="DPXlRrsLsoSHNQQJ87b8-18">
          <mxGeometry width="50" height="50" relative="1" as="geometry">
            <mxPoint x="395" y="770" as="sourcePoint" />
            <mxPoint x="225" y="760" as="targetPoint" />
          </mxGeometry>
        </mxCell>
        <mxCell id="DPXlRrsLsoSHNQQJ87b8-11" value="" style="edgeStyle=orthogonalEdgeStyle;rounded=0;orthogonalLoop=1;jettySize=auto;html=1;fontSize=11;fontColor=#000000;" edge="1" parent="WIyWlLk6GJQsqaUBKTNV-1" source="DPXlRrsLsoSHNQQJ87b8-10" target="DPXlRrsLsoSHNQQJ87b8-1">
          <mxGeometry relative="1" as="geometry" />
        </mxCell>
        <mxCell id="DPXlRrsLsoSHNQQJ87b8-10" value="Jerri" style="rounded=0;whiteSpace=wrap;html=1;labelBackgroundColor=none;fontSize=11;fontColor=#000000;" vertex="1" parent="WIyWlLk6GJQsqaUBKTNV-1">
          <mxGeometry x="175" y="140" width="100" height="40" as="geometry" />
        </mxCell>
        <mxCell id="DPXlRrsLsoSHNQQJ87b8-14" value="&lt;font style=&quot;font-size: 21px;&quot;&gt;&lt;span style=&quot;font-size: 21px;&quot;&gt;Middleware&lt;/span&gt;&lt;/font&gt;" style="text;html=1;strokeColor=none;fillColor=none;align=center;verticalAlign=middle;whiteSpace=wrap;rounded=0;dashed=1;labelBackgroundColor=none;fillStyle=solid;fontSize=21;fontColor=#808080;fontStyle=0" vertex="1" parent="WIyWlLk6GJQsqaUBKTNV-1">
          <mxGeometry x="414" y="410" width="60" height="30" as="geometry" />
        </mxCell>
        <mxCell id="DPXlRrsLsoSHNQQJ87b8-16" value="" style="endArrow=classic;html=1;rounded=0;fontSize=21;fontColor=#666666;exitX=0.5;exitY=1;exitDx=0;exitDy=0;entryX=0.5;entryY=0;entryDx=0;entryDy=0;" edge="1" parent="WIyWlLk6GJQsqaUBKTNV-1" source="DPXlRrsLsoSHNQQJ87b8-1" target="WIyWlLk6GJQsqaUBKTNV-10">
          <mxGeometry width="50" height="50" relative="1" as="geometry">
            <mxPoint x="380" y="510" as="sourcePoint" />
            <mxPoint x="430" y="460" as="targetPoint" />
          </mxGeometry>
        </mxCell>
        <mxCell id="DPXlRrsLsoSHNQQJ87b8-17" value="&lt;div style=&quot;text-align: left;&quot;&gt;&lt;span style=&quot;background-color: initial;&quot;&gt;Send&amp;nbsp;&lt;/span&gt;&lt;font style=&quot;background-color: initial;&quot; color=&quot;#00994d&quot;&gt;&lt;b&gt;randomNumber&lt;/b&gt;&lt;/font&gt;&lt;span style=&quot;background-color: initial;&quot;&gt;&amp;nbsp;in request body:&lt;br&gt;&lt;br&gt;&lt;/span&gt;&lt;/div&gt;&lt;font style=&quot;font-size: 12px;&quot;&gt;&lt;div style=&quot;text-align: left;&quot;&gt;&lt;font style=&quot;background-color: initial;&quot;&gt;1. &lt;/font&gt;&lt;font style=&quot;background-color: initial;&quot; color=&quot;#990000&quot;&gt;/login&lt;/font&gt;&lt;span style=&quot;background-color: initial;&quot;&gt;&amp;nbsp; -&amp;nbsp; send codeChallenge (hashed uuid)&lt;/span&gt;&lt;/div&gt;&lt;div style=&quot;text-align: left;&quot;&gt;&lt;font style=&quot;background-color: initial;&quot;&gt;2. &lt;/font&gt;&lt;font style=&quot;color: rgb(153, 0, 0); background-color: initial;&quot; color=&quot;#990000&quot;&gt;/generateToken&lt;/font&gt;&lt;span style=&quot;color: rgb(0, 0, 0); background-color: initial;&quot;&gt;&amp;nbsp; -&amp;nbsp; send codeVerifier (uuid)&lt;/span&gt;&lt;/div&gt;&lt;/font&gt;" style="rounded=0;whiteSpace=wrap;html=1;" vertex="1" parent="WIyWlLk6GJQsqaUBKTNV-1">
          <mxGeometry x="64" y="1050" width="290" height="100" as="geometry" />
        </mxCell>
        <mxCell id="DPXlRrsLsoSHNQQJ87b8-18" value="&lt;span style=&quot;color: rgb(0, 0, 0);&quot;&gt;1. Forward headers and&lt;/span&gt;&lt;br style=&quot;color: rgb(0, 0, 0);&quot;&gt;&lt;span style=&quot;color: rgb(0, 0, 0);&quot;&gt;cookies in response object.&lt;/span&gt;&lt;br style=&quot;color: rgb(0, 0, 0);&quot;&gt;&lt;br style=&quot;color: rgb(0, 0, 0);&quot;&gt;&lt;span style=&quot;color: rgb(0, 0, 0);&quot;&gt;2. Check headers are being sent&lt;/span&gt;&lt;br style=&quot;color: rgb(0, 0, 0);&quot;&gt;&lt;font color=&quot;#990000&quot;&gt;/generateToken&lt;/font&gt;&lt;span style=&quot;color: rgb(0, 0, 0);&quot;&gt;&amp;nbsp;&lt;/span&gt;&lt;br style=&quot;color: rgb(0, 0, 0);&quot;&gt;&lt;span style=&quot;color: rgb(0, 0, 0);&quot;&gt;SAAT,&amp;nbsp;HDTS,&amp;nbsp;TS&lt;/span&gt;" style="rounded=0;whiteSpace=wrap;html=1;fontFamily=Helvetica;fontSize=12;fontColor=#990000;" vertex="1" parent="WIyWlLk6GJQsqaUBKTNV-1">
          <mxGeometry x="329" y="740" width="230" height="100" as="geometry" />
        </mxCell>
        <mxCell id="DPXlRrsLsoSHNQQJ87b8-19" value="&lt;pre style=&quot;text-align: left; box-sizing: inherit; font-family: Consolas, Monaco, &amp;quot;Andale Mono&amp;quot;, &amp;quot;Ubuntu Mono&amp;quot;, monospace; margin-top: 0.5em; margin-bottom: 0.5em; line-height: 1.5; background: rgb(39, 40, 34); border-radius: 0.3em; overflow: auto; overflow-wrap: normal; padding: 1em; text-shadow: rgba(0, 0, 0, 0.3) 0px 1px; word-break: normal; tab-size: 4; hyphens: none; counter-reset: linenumber 0 NaN 0; font-size: 10px;&quot; class=&quot;language-javascript line-numbers&quot;&gt;&lt;code style=&quot;box-sizing: inherit; font-family: Consolas, Monaco, &amp;quot;Andale Mono&amp;quot;, &amp;quot;Ubuntu Mono&amp;quot;, monospace; font-size: 1em; line-height: 1; background: none; border-radius: 3px; padding: 0.2em 0px; text-shadow: rgba(0, 0, 0, 0.3) 0px 1px; word-spacing: normal; word-break: normal; overflow-wrap: normal; tab-size: 4; hyphens: none;&quot; class=&quot;language-javascript&quot;&gt;&lt;span style=&quot;color: rgb(102, 217, 239); box-sizing: inherit;&quot; class=&quot;token keyword&quot;&gt;const &lt;/span&gt;&lt;span style=&quot;box-sizing: inherit;&quot; class=&quot;token keyword&quot;&gt;&lt;font color=&quot;#ffffff&quot;&gt;crypto&lt;/font&gt;&lt;/span&gt;&lt;span style=&quot;color: rgb(102, 217, 239); box-sizing: inherit;&quot; class=&quot;token keyword&quot;&gt; = &lt;/span&gt;&lt;span style=&quot;box-sizing: inherit;&quot; class=&quot;token keyword&quot;&gt;&lt;font color=&quot;#e3d872&quot;&gt;require&lt;/font&gt;&lt;/span&gt;&lt;span style=&quot;color: rgb(102, 217, 239); box-sizing: inherit;&quot; class=&quot;token keyword&quot;&gt;(&lt;/span&gt;&lt;span style=&quot;box-sizing: inherit;&quot; class=&quot;token keyword&quot;&gt;&lt;font color=&quot;#a6e22e&quot;&gt;&#39;crypto&#39;&lt;/font&gt;&lt;/span&gt;&lt;span style=&quot;color: rgb(102, 217, 239); box-sizing: inherit;&quot; class=&quot;token keyword&quot;&gt;);&lt;br&gt;const&lt;/span&gt;&lt;font color=&quot;#f8f8f2&quot;&gt; codeVerifier &lt;/font&gt;&lt;span style=&quot;color: rgb(248, 248, 242); box-sizing: inherit;&quot; class=&quot;token operator&quot;&gt;=&lt;/span&gt;&lt;font color=&quot;#f8f8f2&quot;&gt; crypto&lt;/font&gt;&lt;span style=&quot;color: rgb(248, 248, 242); box-sizing: inherit;&quot; class=&quot;token punctuation&quot;&gt;.&lt;/span&gt;&lt;span style=&quot;color: rgb(230, 219, 116); box-sizing: inherit;&quot; class=&quot;token function&quot;&gt;randomUUID()&lt;/span&gt;&lt;/code&gt;&lt;font color=&quot;#f8f8f2&quot;&gt;;&lt;br&gt;&lt;br&gt;&lt;/font&gt;&lt;font color=&quot;#66d9ef&quot;&gt;return&lt;/font&gt;&lt;font color=&quot;#f8f8f2&quot;&gt; codeVerifier;&lt;/font&gt;&lt;br&gt;&lt;/pre&gt;" style="rounded=0;whiteSpace=wrap;html=1;fontFamily=Helvetica;fontSize=12;fontColor=#990000;" vertex="1" parent="WIyWlLk6GJQsqaUBKTNV-1">
          <mxGeometry x="513.13" y="1235" width="248.5" height="75" as="geometry" />
        </mxCell>
        <mxCell id="DPXlRrsLsoSHNQQJ87b8-20" value="" style="endArrow=classic;startArrow=classic;html=1;rounded=0;fontFamily=Helvetica;fontSize=12;fontColor=#994C00;exitX=0.5;exitY=1;exitDx=0;exitDy=0;entryX=0.489;entryY=0.017;entryDx=0;entryDy=0;entryPerimeter=0;" edge="1" parent="WIyWlLk6GJQsqaUBKTNV-1" source="DPXlRrsLsoSHNQQJ87b8-18" target="DPXlRrsLsoSHNQQJ87b8-41">
          <mxGeometry width="50" height="50" relative="1" as="geometry">
            <mxPoint x="420" y="900" as="sourcePoint" />
            <mxPoint x="470" y="870" as="targetPoint" />
          </mxGeometry>
        </mxCell>
        <mxCell id="DPXlRrsLsoSHNQQJ87b8-21" value="&lt;span style=&quot;font-family: Consolas, &amp;quot;Bitstream Vera Sans Mono&amp;quot;, &amp;quot;Courier New&amp;quot;, Courier, monospace; font-size: 14.6667px; letter-spacing: 0.162px;&quot;&gt;&lt;b&gt;&lt;font color=&quot;#000000&quot;&gt;utils.getCodeVerifier()&lt;/font&gt;&lt;/b&gt;&lt;/span&gt;" style="text;html=1;strokeColor=none;fillColor=none;align=center;verticalAlign=middle;whiteSpace=wrap;rounded=0;fontFamily=Helvetica;fontSize=12;fontColor=#000099;" vertex="1" parent="WIyWlLk6GJQsqaUBKTNV-1">
          <mxGeometry x="607.38" y="1205" width="60" height="30" as="geometry" />
        </mxCell>
        <mxCell id="DPXlRrsLsoSHNQQJ87b8-22" value="" style="endArrow=classic;startArrow=classic;html=1;rounded=0;fontFamily=Helvetica;fontSize=12;fontColor=#000099;exitX=0.5;exitY=1;exitDx=0;exitDy=0;entryX=0.5;entryY=0;entryDx=0;entryDy=0;" edge="1" parent="WIyWlLk6GJQsqaUBKTNV-1" source="DPXlRrsLsoSHNQQJ87b8-24" target="DPXlRrsLsoSHNQQJ87b8-21">
          <mxGeometry width="50" height="50" relative="1" as="geometry">
            <mxPoint x="620" y="1130" as="sourcePoint" />
            <mxPoint x="620" y="1190" as="targetPoint" />
          </mxGeometry>
        </mxCell>
        <mxCell id="DPXlRrsLsoSHNQQJ87b8-24" value="&lt;div style=&quot;&quot;&gt;&lt;pre style=&quot;box-sizing: inherit; font-family: Consolas, Monaco, &amp;quot;Andale Mono&amp;quot;, &amp;quot;Ubuntu Mono&amp;quot;, monospace; margin-top: 0.5em; margin-bottom: 0.5em; line-height: 1.5; background: rgb(39, 40, 34); border-radius: 0.3em; overflow: auto; overflow-wrap: normal; padding: 1em; text-shadow: rgba(0, 0, 0, 0.3) 0px 1px; text-align: left; word-break: normal; tab-size: 4; hyphens: none; counter-reset: linenumber 0 NaN 0; font-size: 10px;&quot; class=&quot;language-javascript line-numbers&quot;&gt;&lt;code style=&quot;box-sizing: inherit; font-family: Consolas, Monaco, &amp;quot;Andale Mono&amp;quot;, &amp;quot;Ubuntu Mono&amp;quot;, monospace; font-size: 1em; line-height: 1; background: none; border-radius: 3px; padding: 0.2em 0px; text-shadow: rgba(0, 0, 0, 0.3) 0px 1px; word-spacing: normal; word-break: normal; overflow-wrap: normal; tab-size: 4; hyphens: none;&quot; class=&quot;language-javascript&quot;&gt;&lt;span style=&quot;color: rgb(102, 217, 239); box-sizing: inherit;&quot; class=&quot;token keyword&quot;&gt;const&lt;font style=&quot;background-color: initial; font-size: 1em; word-spacing: normal;&quot; color=&quot;#f8f8f2&quot;&gt; codeChallenge &lt;/font&gt;&lt;span style=&quot;background-color: initial; font-size: 1em; word-spacing: normal; color: rgb(248, 248, 242); box-sizing: inherit;&quot; class=&quot;token operator&quot;&gt;= &lt;/span&gt;&lt;font style=&quot;background-color: initial; font-size: 1em; word-spacing: normal;&quot; color=&quot;#e3d872&quot;&gt;getCodeChallenge(&lt;/font&gt;&lt;font style=&quot;background-color: initial; font-size: 1em; word-spacing: normal;&quot; color=&quot;#ffffff&quot;&gt;codeVerifier&lt;/font&gt;&lt;font style=&quot;background-color: initial; font-size: 1em; word-spacing: normal;&quot; color=&quot;#e3d872&quot;&gt;)&lt;/font&gt;&lt;font style=&quot;background-color: initial; font-size: 1em; word-spacing: normal;&quot; color=&quot;#ffffff&quot;&gt;;&lt;/font&gt;&lt;br&gt;const&lt;/span&gt;&lt;font color=&quot;#f8f8f2&quot;&gt; base64Digest &lt;/font&gt;&lt;span style=&quot;color: rgb(248, 248, 242); box-sizing: inherit;&quot; class=&quot;token operator&quot;&gt;=&lt;/span&gt;&lt;font color=&quot;#f8f8f2&quot;&gt; crypto&lt;br&gt;  &lt;/font&gt;&lt;span style=&quot;color: rgb(248, 248, 242); box-sizing: inherit;&quot; class=&quot;token punctuation&quot;&gt;.&lt;/span&gt;&lt;span style=&quot;color: rgb(230, 219, 116); box-sizing: inherit;&quot; class=&quot;token function&quot;&gt;createHash&lt;/span&gt;&lt;span style=&quot;color: rgb(248, 248, 242); box-sizing: inherit;&quot; class=&quot;token punctuation&quot;&gt;(&lt;/span&gt;&lt;span style=&quot;color: rgb(166, 226, 46); box-sizing: inherit;&quot; class=&quot;token string&quot;&gt;&quot;sha256&quot;&lt;/span&gt;&lt;span style=&quot;color: rgb(248, 248, 242); box-sizing: inherit;&quot; class=&quot;token punctuation&quot;&gt;)&lt;/span&gt;&lt;font color=&quot;#f8f8f2&quot;&gt;&lt;br&gt;  &lt;/font&gt;&lt;span style=&quot;color: rgb(248, 248, 242); box-sizing: inherit;&quot; class=&quot;token punctuation&quot;&gt;.&lt;/span&gt;&lt;span style=&quot;color: rgb(230, 219, 116); box-sizing: inherit;&quot; class=&quot;token function&quot;&gt;update&lt;/span&gt;&lt;span style=&quot;color: rgb(248, 248, 242); box-sizing: inherit;&quot; class=&quot;token punctuation&quot;&gt;(&lt;/span&gt;&lt;font color=&quot;#f8f8f2&quot;&gt;codeVerifier&lt;/font&gt;&lt;span style=&quot;color: rgb(248, 248, 242); box-sizing: inherit;&quot; class=&quot;token punctuation&quot;&gt;)&lt;/span&gt;&lt;font color=&quot;#f8f8f2&quot;&gt;&lt;br&gt;  &lt;/font&gt;&lt;span style=&quot;color: rgb(248, 248, 242); box-sizing: inherit;&quot; class=&quot;token punctuation&quot;&gt;.&lt;/span&gt;&lt;span style=&quot;color: rgb(230, 219, 116); box-sizing: inherit;&quot; class=&quot;token function&quot;&gt;digest&lt;/span&gt;&lt;span style=&quot;color: rgb(248, 248, 242); box-sizing: inherit;&quot; class=&quot;token punctuation&quot;&gt;(&lt;/span&gt;&lt;span style=&quot;color: rgb(166, 226, 46); box-sizing: inherit;&quot; class=&quot;token string&quot;&gt;&quot;base64&quot;&lt;/span&gt;&lt;span style=&quot;color: rgb(248, 248, 242); box-sizing: inherit;&quot; class=&quot;token punctuation&quot;&gt;)&lt;/span&gt;&lt;span style=&quot;box-sizing: inherit;&quot; class=&quot;token punctuation&quot;&gt;&lt;font color=&quot;#f8f8f2&quot;&gt;;&lt;br&gt;&lt;br&gt;&lt;/font&gt;&lt;pre style=&quot;box-sizing: inherit; font-family: Consolas, Monaco, &amp;quot;Andale Mono&amp;quot;, &amp;quot;Ubuntu Mono&amp;quot;, monospace; margin-top: 0.5em; margin-bottom: 0.5em; line-height: 1.5; background-image: initial; background-position: initial; background-size: initial; background-repeat: initial; background-attachment: initial; background-origin: initial; background-clip: initial; border-radius: 0.3em; overflow: auto; overflow-wrap: normal; padding: 1em; text-shadow: rgba(0, 0, 0, 0.3) 0px 1px; word-break: normal; tab-size: 4; hyphens: none; counter-reset: linenumber 0 NaN 0;&quot; class=&quot;language-javascript line-numbers&quot;&gt;&lt;code style=&quot;box-sizing: inherit; font-family: Consolas, Monaco, &amp;quot;Andale Mono&amp;quot;, &amp;quot;Ubuntu Mono&amp;quot;, monospace; font-size: 1em; line-height: 1.5; background: none; border-radius: 3px; padding: 0.2em 0px; text-shadow: rgba(0, 0, 0, 0.3) 0px 1px; word-spacing: normal; word-break: normal; overflow-wrap: normal; tab-size: 4; hyphens: none;&quot; class=&quot;language-javascript&quot;&gt;&lt;font color=&quot;#66d9ef&quot;&gt;return&lt;/font&gt;&lt;font color=&quot;#f8f8f2&quot;&gt; &lt;/font&gt;&lt;font color=&quot;#f8f8f2&quot;&gt;base64url&lt;/font&gt;&lt;span style=&quot;color: rgb(248, 248, 242); box-sizing: inherit;&quot; class=&quot;token punctuation&quot;&gt;.&lt;/span&gt;&lt;span style=&quot;color: rgb(230, 219, 116); box-sizing: inherit;&quot; class=&quot;token function&quot;&gt;fromBase64&lt;/span&gt;&lt;span style=&quot;color: rgb(248, 248, 242); box-sizing: inherit;&quot; class=&quot;token punctuation&quot;&gt;(&lt;/span&gt;&lt;font color=&quot;#f8f8f2&quot;&gt;base64Digest&lt;/font&gt;&lt;span style=&quot;color: rgb(248, 248, 242); box-sizing: inherit;&quot; class=&quot;token punctuation&quot;&gt;)&lt;/span&gt;&lt;span style=&quot;color: rgb(248, 248, 242); box-sizing: inherit;&quot; class=&quot;token punctuation&quot;&gt;;&lt;/span&gt;&lt;/code&gt;&lt;/pre&gt;&lt;/span&gt;&lt;/code&gt;&lt;/pre&gt;&lt;/div&gt;" style="rounded=0;whiteSpace=wrap;html=1;fontFamily=Helvetica;fontSize=12;fontColor=#990000;strokeColor=default;" vertex="1" parent="WIyWlLk6GJQsqaUBKTNV-1">
          <mxGeometry x="470" y="990" width="334.75" height="150" as="geometry" />
        </mxCell>
        <mxCell id="DPXlRrsLsoSHNQQJ87b8-25" value="&lt;span style=&quot;font-family: Consolas, &amp;quot;Bitstream Vera Sans Mono&amp;quot;, &amp;quot;Courier New&amp;quot;, Courier, monospace; font-size: 14.6667px; letter-spacing: 0.162px;&quot;&gt;&lt;b&gt;&lt;font color=&quot;#000000&quot;&gt;utils.getCodeChallenge(codeVerifier)&lt;/font&gt;&lt;/b&gt;&lt;/span&gt;" style="text;html=1;strokeColor=none;fillColor=none;align=center;verticalAlign=middle;whiteSpace=wrap;rounded=0;fontFamily=Helvetica;fontSize=12;fontColor=#000099;" vertex="1" parent="WIyWlLk6GJQsqaUBKTNV-1">
          <mxGeometry x="590.25" y="960" width="60" height="30" as="geometry" />
        </mxCell>
        <mxCell id="DPXlRrsLsoSHNQQJ87b8-41" value="route" style="rounded=1;whiteSpace=wrap;html=1;fontFamily=Helvetica;fontSize=11;fontColor=#000000;" vertex="1" parent="WIyWlLk6GJQsqaUBKTNV-1">
          <mxGeometry x="180" y="900" width="540" height="30" as="geometry" />
        </mxCell>
      </root>
    </mxGraphModel>
  </diagram>
</mxfile>
